<?xml version="1.0" encoding="utf-8"?>
<!-- Generator: Adobe Illustrator 26.1.0, SVG Export Plug-In . SVG Version: 6.00 Build 0)  -->
<svg version="1.1" id="Capa_1" xmlns="http://www.w3.org/2000/svg" xmlns:xlink="http://www.w3.org/1999/xlink" x="0px" y="0px"
	 viewBox="0 0 500 500" style="enable-background:new 0 0 500 500;" xml:space="preserve">
<style type="text/css">
	.st0{fill-rule:evenodd;clip-rule:evenodd;fill:#660099;}
</style>
<desc>Created with sketchtool.</desc>
<g id="Page-1">
	<g id="Sábana-de-iconos-Copy" transform="translate(-1085.000000, -2200.000000)">
		<path id="ic_bullseye_regular" class="st0" d="M1523.5,2327.2l-36.6-0.6l21.6-21.6l31.1,0.4L1523.5,2327.2z M1363.4,2504.4
			c0,48.3-12.8,80.7-75.2,81.9l-10,0.1l-4.7-0.1c-62.2-0.9-75-33.9-75-83.1c0-48.6,12.4-81.2,72.8-81.8c1.6,0,11.3,0.1,15,0.1
			c22.3,0.5,38.3,4.9,49.9,12.4L1283,2487l-1-11.4c-0.7-8.4-7.8-14.5-16.6-13.9c-8.4,0.7-14.6,8.1-13.9,16.5l3.8,44
			c0.1,1.5,0.5,2.9,1.1,4.3c0.1,0.1,0.1,0.3,0.2,0.4c0.6,1.5,1.5,2.8,2.6,4c0.4,0.4,0.7,0.8,1.1,1.1c1,0.9,2.1,1.6,3.3,2.3
			c0.4,0.2,0.8,0.5,1.2,0.6c0.2,0.1,0.4,0.2,0.6,0.3c1.3,0.5,2.6,0.6,4,0.7c0.4,0,0.6,0.2,1,0.2l49.3,0.9h0.3
			c8.3,0,15.1-6.7,15.3-15c0.1-8.4-6.5-15.4-15-15.5l-13.4-0.2l49-49C1361.6,2470.4,1363.4,2486.3,1363.4,2504.4z M1446.5,2504.4
			c0,146.2-109.8,164-157,164.9c-3.3,0.1-7.2,0.1-11,0.1l-5.9-0.1c-47.2-0.6-156.9-18.2-156.9-166.1
			c0-147.6,108.7-164.5,155.4-164.8h3.7c4.7,0,9.5,0.1,13.8,0.2c26.2,0.6,71.5,6.7,107,36.3l-37.3,37.3c-15.7-12-38.3-20.4-71-21.1
			c-4.1-0.1-15.7-0.2-15.7-0.2c-103.3,0.9-103.3,84.8-103.3,112.3c0,27.7,0,112.1,105,113.6l4.8,0.1l10.5-0.1
			c105.4-1.8,105.4-85,105.4-112.4c0-14.4-0.1-43.9-15.4-69.3l37.8-37.8C1434.2,2421.7,1446.5,2455.9,1446.5,2504.4z M1461.5,2266.5
			l22.2-18.6v38.8l-20.6,20.6L1461.5,2266.5z M1583.3,2283.6c-2.6-5.1-7.8-8.4-13.5-8.5l-33.4-0.4c1.8-5.3,0.7-11.4-3.6-15.7
			c-5.1-5-12.8-5.5-18.6-1.9v-41.8c0-5.9-3.4-11.3-8.8-13.9c-5.3-2.5-11.7-1.7-16.2,2.1l-53,44.2c-3.6,3-5.7,7.5-5.5,12.3l3,76.5
			l-16.8,16.8c-46.1-39.3-105.5-44.9-127.7-45.4c-4.4-0.1-9.5-0.2-14.5-0.2c-1.4,0-2.7,0-4.1,0c-39.3,0.4-185.6,13.9-185.6,195.4
			c0,181.8,147.6,196.1,187,196.6c2.1,0.1,4.2,0.1,6.3,0.1c4.1,0,8.1-0.1,11.6-0.1c37.4-0.6,187-14.7,187-195.4
			c0-59-16.1-100-39-128.9l18.8-18.8l74,1.2h0.2c4.8,0,9.4-2.3,12.3-6.2l38.5-52.2C1585.3,2294.8,1585.8,2288.7,1583.3,2283.6z"/>
	</g>
</g>
</svg>
