<?xml version="1.0" encoding="utf-8"?>
<!-- Generator: Adobe Illustrator 26.1.0, SVG Export Plug-In . SVG Version: 6.00 Build 0)  -->
<svg version="1.1" id="Capa_1" xmlns="http://www.w3.org/2000/svg" xmlns:xlink="http://www.w3.org/1999/xlink" x="0px" y="0px"
	 viewBox="0 0 500 500" style="enable-background:new 0 0 500 500;" xml:space="preserve">
<style type="text/css">
	.st0{fill-rule:evenodd;clip-rule:evenodd;fill:#660099;}
</style>
<desc>Created with sketchtool.</desc>
<g id="Page-1">
	<g id="Sábana-de-iconos-Copy" transform="translate(-917.000000, -2116.000000)">
		<path id="ic_rocket_regular" class="st0" d="M1231.1,2317.2c14.7,0,19.9-5.3,19.9-20c0-14.8-5.2-20-19.9-20
			c-14.7,0-19.9,5.3-19.9,20S1216.4,2317.2,1231.1,2317.2z M1231.1,2245.7c32,0,51.1,19.3,51.1,51.4c0,32.2-19.1,51.4-51.1,51.4
			s-51.1-19.2-51.1-51.4C1180,2265,1199.1,2245.7,1231.1,2245.7z M1022.2,2545c12.4-12.5,12.4-22.2,0-34.7
			c-6.2-6.3-11.7-9.4-17.2-9.4s-11,3.1-17.3,9.4c-12.7,12.8-32.9,38-38.1,72.9C986,2577.6,1011.9,2555.4,1022.2,2545z M965.5,2488.1
			c24.7-24.8,54.1-24.8,78.7,0s24.6,54.4,0,79.2c-14.6,14.7-54.6,48.7-111.6,48.7c-8.6,0-15.6-7-15.6-15.7
			C917,2545.1,947.4,2506.3,965.5,2488.1z M1288.2,2412.9c3.9-3.5,7.5-7.1,11.6-11.2c27.5-27.6,46.6-61.7,59.8-95.9l-131.2-132
			c-34.1,13.4-68.3,32.7-96,60.6c-3.6,3.6-7.7,7.7-11.2,11.8l-13.7,15.4c-24.8,28.8-49.2,64.2-65.2,94.2l-8.5,17.1
			c-8.3,18.5-9.2,27-9.2,29.7l107,107.6c2.1,0.2,11-0.6,29.9-9.5l17.4-8.5c29.3-15.6,63.4-39.5,93.5-65.7L1288.2,2412.9z
			 M1297.4,2492.3c1.8-17.4-3.6-31-8-39c-23.5,20-48.9,38.7-73.1,53.6c4.4,9.3,8.5,18.7,12.3,27.9c4.8,11.5,11.7,28,16.6,34.9
			C1277.6,2543.8,1294.8,2518,1297.4,2492.3z M1003.3,2306.2c8.3,3.5,16.6,7.2,25,11.1c15.2-24.9,33.8-50.5,53.3-73.5
			c-8.2-4.1-20.6-8.3-36.1-6.8c-25.8,2.6-51.7,20.3-77,52.5C975.5,2294.4,991.9,2301.4,1003.3,2306.2z M1374.6,2148.3
			c-19.7-2.2-64.2,0.4-113.1,14.4l109.3,109.9c14.2-49.8,16.6-95,14.3-114C1384.3,2153.2,1380,2148.9,1374.6,2148.3z M1321.9,2423.9
			c-3,3.1-5.9,5.7-8.7,8.5c7.1,11,18.1,33,15.4,62.2c-3.3,35.9-25.8,70.1-66.8,101.9c-6,5.2-12.2,6.6-17,6.6c-2.3,0-4.2-0.3-5.7-0.6
			c-17.9-4.2-26.8-25.8-39.3-55.6c-3.4-8.3-7-16.6-10.8-24.7l-14.1,6.9c-17.9,8.3-32.1,12.4-43.2,12.4c-8.8,0-15.7-2.6-20.9-7.8
			l-109.7-110.3c-15.2-14-5.7-41.6,4.4-64l7.3-14.7c-7.2-3.3-14.4-6.5-21.6-9.5c-29.7-12.5-51.1-21.6-55.3-39.6
			c-1.1-4.6-1.7-13.9,6.4-23.5c31.1-40.5,65.2-63.2,100.9-66.6c27.4-2.6,48.3,7,59.8,14.2c2.5-2.6,5-5.3,7.3-7.6
			c83.7-84.2,219-100.8,268-95.2c19.8,2.6,35.1,18,37.7,37.6C1421.1,2196.2,1408.2,2337.1,1321.9,2423.9z"/>
	</g>
</g>
</svg>
