<?xml version="1.0" encoding="utf-8"?>
<!-- Generator: Adobe Illustrator 26.1.0, SVG Export Plug-In . SVG Version: 6.00 Build 0)  -->
<svg version="1.1" id="Capa_1" xmlns="http://www.w3.org/2000/svg" xmlns:xlink="http://www.w3.org/1999/xlink" x="0px" y="0px"
	 viewBox="0 0 500 500" style="enable-background:new 0 0 500 500;" xml:space="preserve">
<style type="text/css">
	.st0{fill-rule:evenodd;clip-rule:evenodd;fill:#660099;}
</style>
<desc>Created with sketchtool.</desc>
<g id="Page-1">
	<g id="Sábana-de-iconos-Copy" transform="translate(-1444.000000, -2200.000000)">
		<path id="ic_handleft_masa" class="st0" d="M1633.5,2606.6c0-7.2,1-13.7,3-19.6c-21.8-6-34.7-23.9-34.7-49.5
			c0-7.2,1.1-13.8,3-19.7c-21.6-6.1-34.4-23.9-34.4-49.4c0-6.3,0.8-12.1,2.3-17.4H1499c-33.9,0-54.9-20.8-54.9-54.2
			c0-32.2,19.6-51.9,53.8-54.1c0.4,0,0.7,0,1.1,0c6.5,0,131.1,0,187.6,0c-14.7-8.6-24.9-16.4-32.3-25.6c-7.3-9.1-11-20-11-30.7
			c0-10.2,3.3-20.3,10.1-28.7c13.2-16.5,35.8-20.6,57.5-10.4c36.8,17.3,95.9,46.4,143.4,69.8c29.6,14.6,55.2,27.2,62.9,30.7
			c8.1,3.7,27,12.5,27,32.3V2578c0,25-7.8,46.2-22,60c-14.1,13.7-33.8,20.6-58.5,20.6H1686
			C1653.5,2658.4,1633.5,2638.6,1633.5,2606.6z"/>
	</g>
</g>
</svg>
