<?xml version="1.0" encoding="utf-8"?>
<!-- Generator: Adobe Illustrator 26.1.0, SVG Export Plug-In . SVG Version: 6.00 Build 0)  -->
<svg version="1.1" id="Capa_1" xmlns="http://www.w3.org/2000/svg" xmlns:xlink="http://www.w3.org/1999/xlink" x="0px" y="0px"
	 viewBox="0 0 500 500" style="enable-background:new 0 0 500 500;" xml:space="preserve">
<style type="text/css">
	.st0{fill-rule:evenodd;clip-rule:evenodd;fill:#660099;}
</style>
<desc>Created with sketchtool.</desc>
<g id="Page-1">
	<g id="Sábana-de-iconos-Copy" transform="translate(-875.000000, -2200.000000)">
		<path id="ic_handleft_regular" class="st0" d="M1294.5,2627.4c16.4,0,28.5-3.8,36.6-11.7c8-7.8,12.5-21.5,12.5-37.8V2381
			c-1.9-1.9-7-4.3-8.8-5.1c-7.8-3.6-31.3-15.2-63.6-31l-1.4-0.7c-47-23.1-105.4-51.9-141.6-68.8c-4-1.8-13.9-5.5-19.6,1.6
			c-2.7,3.3-3.3,7-3.3,9.5c0,4,1.5,8.1,4.2,11.5c4.4,5.5,11.5,11,23.8,18.2c9.7,5.7,15.3,15.9,15.3,26.7c0,2.7-0.4,5.5-1.1,8.2
			c-3.8,13.4-16.1,22.8-30.2,22.8c-56.6,0-181,0-186.7,0c-20.4,1.3-24.5,9.7-24.5,23.1c0,16.3,7,23.3,23.6,23.3h73.7
			c9.7,0,19.1,4.6,25,12.3c4.1,5.4,6.3,12,6.3,18.7c0,2.8-0.4,5.6-1.2,8.4c-0.7,2.6-1.1,5.6-1.1,9c0,16.2,8.3,18.6,11.7,19.6
			c8.2,2.3,15,7.8,19,15.3c2.4,4.6,3.6,9.5,3.6,14.5c0,3.3-0.5,6.5-1.6,9.7c-0.9,2.8-1.4,6.2-1.4,10c0,16.3,8,18.6,11.9,19.6
			c8.3,2.3,15.2,7.8,19.1,15.3c2.5,4.6,3.7,9.5,3.7,14.6c0,3.3-0.5,6.5-1.6,9.7c-0.9,2.8-1.4,6.1-1.4,9.9c0,14.7,6.1,20.8,21.1,20.8
			h177.9L1294.5,2627.4L1294.5,2627.4z M1064.5,2606.6c0-7.2,1-13.7,3-19.6c-21.8-6-34.7-23.9-34.7-49.5c0-7.2,1-13.9,3-19.7
			c-21.6-6.1-34.4-23.9-34.4-49.4c0-6.3,0.8-12.1,2.3-17.4H930c-33.9,0-54.9-20.8-54.9-54.2c0-32.2,19.6-51.9,53.8-54.1
			c0.4,0,0.8,0,1.1,0c6.5,0,131-0.1,187.5,0c-14.7-8.6-24.9-16.4-32.3-25.7c-7.3-9.1-11-20-11-30.7c0-10.2,3.3-20.3,10.1-28.7
			c13.2-16.5,35.8-20.6,57.5-10.4c36.8,17.3,95.9,46.4,143.4,69.8c29.6,14.6,55.1,27.2,62.9,30.7c8,3.7,26.9,12.5,26.9,32.3v197.8
			c0,25-7.8,46.2-22,60c-14.2,13.7-33.8,20.6-58.5,20.6h-177.7C1084.5,2658.3,1064.5,2638.5,1064.5,2606.6z"/>
	</g>
</g>
</svg>
