<?xml version="1.0" encoding="utf-8"?>
<!-- Generator: Adobe Illustrator 26.1.0, SVG Export Plug-In . SVG Version: 6.00 Build 0)  -->
<svg version="1.1" id="Artwork" xmlns="http://www.w3.org/2000/svg" xmlns:xlink="http://www.w3.org/1999/xlink" x="0px" y="0px"
	 viewBox="0 0 500 500" style="enable-background:new 0 0 500 500;" xml:space="preserve">
<style type="text/css">
	.st0{fill:#660099;}
</style>
<path class="st0" d="M249.3,1c3.8,0,7.6,0.7,11.2,2.1c11,4.5,17.8,15.3,17.6,28.1l0.1,92.5c0.3,0.5,0.6,1,1,1.4l174.5,0.5
	c15.6-0.2,27.1,3.7,35.1,11.9s11.6,19.7,11.2,35.3V326c0.2,10.7-0.8,26-11.1,36.6c-10.3,10.7-25.6,12.2-36.2,12.4h-0.2l-170.2-0.1
	c-1.4,0.2-2.7,0.6-4,1.3l0.1,90.3v0.1c-0.1,21.7-10.5,29.1-16.7,31.6c-10.6,4.3-22.8,0.4-33.5-10.7L8.8,266.8
	c-2.2-2.1-8.5-8.4-8.5-17.5c0-3.8,1.3-9.6,7-15.1l215-220.7C229.9,5.4,239.8,1,249.3,1z M278.2,124.4L278.2,124.4z M277.4,125.2
	L277.4,125.2z"/>
</svg>
