<?xml version="1.0" encoding="utf-8"?>
<!-- Generator: Adobe Illustrator 26.1.0, SVG Export Plug-In . SVG Version: 6.00 Build 0)  -->
<svg version="1.1" id="Artwork" xmlns="http://www.w3.org/2000/svg" xmlns:xlink="http://www.w3.org/1999/xlink" x="0px" y="0px"
	 viewBox="0 0 500 500" style="enable-background:new 0 0 500 500;" xml:space="preserve">
<style type="text/css">
	.st0{fill:#660099;}
</style>
<g>
	<path class="st0" d="M253.2,500c-8.2,0-16.9-4.3-24.8-12.4L8.9,266.8c-2.2-2.1-8.5-8.4-8.5-17.5c0-3.8,1.3-9.6,7-15.1L222.3,13.5
		c10.8-11.3,25.8-15.4,38.1-10.3c11,4.5,17.8,15.2,17.6,28.1l0.1,92.5c0.2,0.4,0.6,1,1,1.4l174.5,0.5c15.6-0.1,27.1,3.7,35.1,11.9
		s11.6,19.7,11.2,35.2v153.3c0.2,10.7-0.8,26-11.1,36.6c-10.4,10.7-25.6,12.2-36.1,12.4c-0.1,0-0.1,0-0.2,0L282.4,375
		c-1,0.1-2.6,0.6-4,1.3l0.1,90.3c0,0.1,0,0.1,0,0.1c-0.1,21.7-10.5,29.1-16.7,31.6C259.1,499.4,256.2,500,253.2,500z M30.8,249.7
		L248,468.2c0.1,0.1,0.1,0.1,0.1,0.1c0.9,1,1.8,1.7,2.5,2.3c0.1-1.1,0.3-2.4,0.3-4.1l-0.1-94.1c0-16.5,20.5-25.2,31.6-25.2
		l170.1,0.1c8.5-0.1,14.2-1.5,16.5-3.9s3.5-8.3,3.3-17c0-0.1,0-0.2,0-0.3V172.6c0-0.1,0-0.3,0-0.4c0.1-5.3-0.3-12.1-3.3-15.2
		c-3.1-3.1-9.9-3.7-15.1-3.6c-0.1,0-0.1,0-0.2,0l-176.3-0.5c-14.8,0-26.8-15.6-26.8-28.4l-0.1-93.2c0-0.1,0-0.1,0-0.2
		c0-1.3-0.3-2-0.4-2.1c-0.5-0.4-3.8-0.4-7.8,3.8c-0.1,0.1-0.1,0.1-0.1,0.1L30.8,249.7z M277.4,125.2L277.4,125.2L277.4,125.2z
		 M278.2,124.5L278.2,124.5L278.2,124.5z"/>
</g>
</svg>
